<svg width="35" height="35" viewBox="0 0 35 35" fill="none" xmlns="http://www.w3.org/2000/svg">
<path d="M17.5 35C7.85641 35 0 27.1436 0 17.5C0 7.85641 7.85641 0 17.5 0C27.1436 0 35 7.85641 35 17.5C35 27.1436 27.1436 35 17.5 35ZM32.2602 19.8931C31.7483 19.7323 27.6347 18.503 22.9458 19.2544C24.9003 24.6269 25.6977 29.0019 25.8519 29.913C29.2064 27.6456 31.593 24.0505 32.2602 19.8931ZM23.3395 31.2802C23.1175 29.9709 22.2458 25.4013 20.1491 19.95L20.0528 19.9773C11.6102 22.9173 8.59141 28.7678 8.32891 29.3147C10.8478 31.2911 14.0427 32.4702 17.5 32.4702C19.5683 32.4702 21.5392 32.0491 23.333 31.2845L23.3395 31.2802ZM6.39734 27.5198C6.73313 26.9336 10.8347 20.148 18.5478 17.6531C18.7414 17.5864 18.9405 17.5295 19.1341 17.477C18.7578 16.6228 18.3477 15.7741 17.9211 14.9428C10.4584 17.1697 3.21781 17.0789 2.56375 17.0614L2.55828 17.5175C2.55828 21.3577 4.01078 24.8664 6.39844 27.5144L6.39734 27.5198ZM2.86562 14.4583C3.53828 14.4703 9.695 14.4977 16.6852 12.6416C14.2078 8.23703 11.5358 4.53469 11.1431 3.99328C6.96062 5.96531 3.84016 9.81531 2.86562 14.4528V14.4583ZM14.0033 2.99141C14.4134 3.55031 17.1303 7.24062 19.5737 11.7414C24.8883 9.75406 27.1436 6.72766 27.4127 6.34703C24.7691 3.99328 21.2997 2.57578 17.5 2.57578C16.298 2.57578 15.1244 2.71687 14.0033 2.99141ZM29.0708 8.07188C28.7569 8.49297 26.25 11.7064 20.7244 13.9617C21.0711 14.6792 21.408 15.3978 21.7164 16.1317C21.8356 16.3942 21.9319 16.6567 22.0347 16.9017C27.0091 16.275 31.9528 17.2834 32.4483 17.3862C32.4188 13.8545 31.1664 10.6181 29.0806 8.07734L29.0708 8.07188Z" fill="white"/>
</svg>
