<svg width="35" height="35" viewBox="0 0 35 35" fill="none" xmlns="http://www.w3.org/2000/svg">
<path d="M32.4023 -0.00573947C31.95 0.017047 31.5241 0.159462 31.1455 0.318967H31.1402C30.7564 0.484169 28.9317 1.31588 26.1605 2.57483C23.3893 3.83948 19.7926 5.4801 16.2221 7.10933C9.09172 10.3621 2.08225 13.5636 2.08225 13.5636L2.16639 13.5294C2.16639 13.5294 1.68261 13.7003 1.17781 14.0763C0.920145 14.2586 0.63619 14.5092 0.389045 14.9023C0.1419 15.2954 -0.0579207 15.8992 0.0156978 16.5201C0.136642 17.574 0.767651 18.2063 1.21987 18.5538C1.67736 18.907 2.11381 19.0722 2.11381 19.0722H2.12432L8.69734 21.4705C8.99181 22.4959 10.7008 28.5799 11.1109 29.9812C11.3528 30.8186 11.5895 31.3427 11.8839 31.7415C12.0259 31.9466 12.1942 32.1175 12.394 32.2542C12.4729 32.3055 12.557 32.3453 12.6411 32.3795C12.6674 32.3966 12.6937 32.4023 12.7253 32.408L12.6569 32.3909C12.678 32.3966 12.6937 32.4137 12.7095 32.4194C12.7621 32.4365 12.7989 32.4422 12.8673 32.4536C13.9084 32.7954 14.7445 32.0947 14.7445 32.0947L14.7918 32.0548L18.6725 28.2267L25.1772 33.6328L25.3244 33.7011C26.6811 34.3448 28.0536 33.986 28.7792 33.3536C29.5101 32.7156 29.7941 31.901 29.7941 31.901L29.8414 31.77L34.8685 3.87365C35.0104 3.18436 35.0472 2.54065 34.8895 1.91402C34.7317 1.28739 34.3268 0.700641 33.8378 0.387327C33.3435 0.0683162 32.8545 -0.0285259 32.4023 -0.00573947ZM32.2655 2.98498C32.2603 3.07613 32.2761 3.06474 32.2393 3.24133V3.25842L27.2595 30.8642C27.2385 30.9041 27.2017 30.9895 27.1018 31.075C26.9966 31.1661 26.9125 31.2231 26.476 31.0351L18.5201 24.427L13.7139 29.1723L14.7235 22.1883C14.7235 22.1883 27.1859 9.60445 27.7223 9.06327C28.2586 8.52209 28.0799 8.40816 28.0799 8.40816C28.1167 7.74735 27.2701 8.21448 27.2701 8.21448L10.8796 19.2146L10.8743 19.1862L3.01825 16.3208V16.3151C3.01299 16.3151 3.00248 16.3094 2.99722 16.3094C3.00248 16.3094 3.03929 16.2923 3.03929 16.2923L3.08135 16.2695L3.12342 16.2524C3.12342 16.2524 10.1381 13.0509 17.2686 9.79813C20.839 8.1689 24.4358 6.52828 27.2017 5.26363C29.9676 4.00468 32.0131 3.08182 32.1288 3.03056C32.2393 2.98498 32.1867 2.98498 32.2655 2.98498Z" fill="white"/>
</svg>
